<?xml version="1.0" standalone="no"?><!DOCTYPE svg PUBLIC "-//W3C//DTD SVG 1.1//EN" "http://www.w3.org/Graphics/SVG/1.1/DTD/svg11.dtd"><svg width="18" height="18" viewBox="0 0 18 18" version="1.1" xmlns="http://www.w3.org/2000/svg" xmlns:xlink="http://www.w3.org/1999/xlink"><defs><style type="text/css"><![CDATA[
@font-face { font-family: ifont; src: url("http://at.alicdn.com/t/font_1442373896_4754455.eot?#iefix") format("embedded-opentype"), url("http://at.alicdn.com/t/font_1442373896_4754455.woff") format("woff"), url("http://at.alicdn.com/t/font_1442373896_4754455.ttf") format("truetype"), url("http://at.alicdn.com/t/font_1442373896_4754455.svg#ifont") format("svg"); }

]]></style></defs><g class="transform-group"><g transform="scale(0.017578125, 0.017578125)"><path d="M205.4 403.9c0-84.2 29.9-156.1 89.4-216.4 59.5-60.3 131.7-90.2 216.4-90.2 84.6 0 156.9 29.9 217.2 90.2 60.3 60.3 90.2 132.1 90.2 216.4 0 11.6-0.4 23.6-1.6 35.1-2 2-1.6 6-1.6 8l-4.8 28.8c-2 0-1.6 2.8-1.6 4.8-3.2 10.8-6.4 20.4-9.6 28.7 0 0 0 0.4 0 1.6 0 0-0.4 0.4-1.6 1.6-4.4 11.6-8.4 22-12.8 30.3 0 1.2-0.4 1.6-1.6 1.6-5.2 10.8-11.2 20.8-17.6 30.3-6.4 9.6-13.2 19.2-20.8 28.7 0 0-0.4 0.4-0.8 0.8l-0.8 0.8c-6.4 7.6-14 14.8-22.4 22.4 0 0-0.8 0.4-2.4 1.6-4 2.8-4.4 5.2-8.8 9.6-2 0-4.8 1.2-4.8 3.2l-15.2 12-3.2 2.4-2.4 1.6c-9.6 7.6-16.4 16-20.8 25.6-4.4 9.6-8.4 16.4-12.8 20.8-4.4 4.4-12.4 6.4-24 6.4L397 710.6c-11.6 0-19.6-2-23.9-6.4-4.4-4.4-8.8-11.2-13.6-20.8-4.8-9.6-11.6-18-20-25.6-1.2 0-2-0.4-3.2-1.6l-2.4-2.4-15.2-12-4.8-3.2-6.4-6.4c0 0-1.6-1.6-4.8-4.8l-22.4-22.4c0 0-0.4-0.4-0.8-0.8l-0.8-0.8c-14.8-19.2-27.5-37.9-38.3-59.1-1.2 0-1.6-0.4-1.6-1.6-4.4-8.4-8.4-18.8-12.8-30.3-1.2 0-1.6-0.4-1.6-1.6 0 0 0-0.4 0-1.6-3.2-8.4-6.4-18-9.6-28.7 0 0-0.4-0.8-0.8-2.4l-0.8-2.4c-2-8.4-3.6-18-4.8-28.8 0-2-1.6-6-1.6-8C205.8 427.4 205.4 415.5 205.4 403.9L205.4 403.9 205.4 403.9zM385.8 761.6l255.5 0c14.8 0 25.5 10.8 25.5 25.6 0 14.8-10.8 25.5-25.5 25.5L385.8 812.7c-14.8 0-25.6-10.8-25.6-25.5C360.3 772.4 371.1 761.6 385.8 761.6L385.8 761.6zM397 863.8l231.6 0-94.2 47.9c-14.8 6.4-31.5 6.4-46.3 0L397 863.8 397 863.8zM539.1 250.6c30.7 0 59.9 12.4 87 37.5 27.1 25.1 40.7 56.3 40.7 93.4 0 12.8 10.8 25.6 25.6 25.6 14.8 0 25.6-12.8 25.6-25.6 0-55.5-18-99.4-54.3-132.5-36.3-33.1-77.8-49.5-124.6-49.5-14.8 0-25.6 10.8-25.6 25.6S524.4 250.6 539.1 250.6L539.1 250.6z" fill="#11cd6e"></path></g></g></svg>