<?xml version="1.0" standalone="no"?><!DOCTYPE svg PUBLIC "-//W3C//DTD SVG 1.1//EN" "http://www.w3.org/Graphics/SVG/1.1/DTD/svg11.dtd"><svg width="18" height="18" viewBox="0 0 18 18" version="1.1" xmlns="http://www.w3.org/2000/svg" xmlns:xlink="http://www.w3.org/1999/xlink"><defs><style type="text/css"><![CDATA[
@font-face { font-family: ifont; src: url("http://at.alicdn.com/t/font_1442373896_4754455.eot?#iefix") format("embedded-opentype"), url("http://at.alicdn.com/t/font_1442373896_4754455.woff") format("woff"), url("http://at.alicdn.com/t/font_1442373896_4754455.ttf") format("truetype"), url("http://at.alicdn.com/t/font_1442373896_4754455.svg#ifont") format("svg"); }

]]></style></defs><g class="transform-group"><g transform="scale(0.017578125, 0.017578125)"><path d="M760.401951 803.932886c-1.463328-14.20656-12.868075-26.291806-27.704992-26.417673-12.313443-0.075725-14.332427-6.207375-14.231119-16.198937 0.150426-22.63451-0.302899-45.293579 0-67.928089 0.251733-23.466458-8.529257-42.769083-24.122397-59.927881-26.342971-28.79072-51.323922-58.818617-78.221526-87.002516-27.050076-28.287253-26.747177-52.66036-0.50449-80.214926 26.797319-28.28623 51.77827-58.313104 78.171384-87.028099 16.502859-17.890462 25.182542-38.151925 24.77936-62.602803-0.50449-22.633486 0.050142-45.292556-0.101307-67.901483-0.101307-9.41237 3.12927-13.752212 13.423731-14.07967 15.745612-0.50449 27.554566-12.5662 28.563546-27.100218 1.00898-13.120832-9.538237-26.342971-24.325012-29.875424-4.64274-1.110287-9.588379-1.236154-14.332427-1.236154-130.959657-0.050142-261.917268-0.050142-392.927067 0.050142-5.65172 0-11.55722 0.404206-17.057491 1.893116-14.029528 3.809769-23.617907 17.08205-22.255887 29.77514 1.564635 14.458293 12.667507 26.342971 27.605731 26.444279 12.313443 0.050142 14.332427 6.181793 14.281261 16.22452-0.201591 22.608927 0.252757 45.242414 0 67.876923-0.251733 23.416316 8.529257 42.744523 24.122397 59.927881 28.513404 31.338752 56.622602 63.057151 84.530209 94.951559 19.984147 22.784936 19.883863 42.237987-0.404206 65.427128-27.957749 31.869848-56.06797 63.561641-84.480067 94.976118-15.241123 16.804734-23.920806 35.729759-23.719214 58.616002 0.302899 22.154579-0.302899 44.283576 0.101307 66.462714 0.201591 11.885701-2.018983 18.874883-16.451694 18.62315-13.07069-0.178055-24.122397 11.707646-25.1324 25.508977-1.110287 13.07069 4.541433 23.795962 17.006326 28.892027 6.510274 2.623757 14.080693 3.457752 21.145599 3.481288 65.5049 0.25378 130.958634 0.151449 196.46251 0.151449 65.454758 0 130.959657 0.050142 196.36325-0.100284 6.157233 0 12.616342-0.555655 18.470677-2.322905C752.479515 829.393767 761.664711 815.918871 760.401951 803.932886z" fill="#a9b7b7"></path></g></g></svg>