<?xml version="1.0" standalone="no"?><!DOCTYPE svg PUBLIC "-//W3C//DTD SVG 1.1//EN" "http://www.w3.org/Graphics/SVG/1.1/DTD/svg11.dtd"><svg width="18" height="18" viewBox="0 0 18 18" version="1.1" xmlns="http://www.w3.org/2000/svg" xmlns:xlink="http://www.w3.org/1999/xlink"><defs><style type="text/css"><![CDATA[
@font-face { font-family: ifont; src: url("http://at.alicdn.com/t/font_1442373896_4754455.eot?#iefix") format("embedded-opentype"), url("http://at.alicdn.com/t/font_1442373896_4754455.woff") format("woff"), url("http://at.alicdn.com/t/font_1442373896_4754455.ttf") format("truetype"), url("http://at.alicdn.com/t/font_1442373896_4754455.svg#ifont") format("svg"); }

]]></style></defs><g class="transform-group"><g transform="scale(0.017578125, 0.017578125)"><path d="M1023.616 511.872c0 98.048-210.944 307.136-511.616 307.136-292.992 0.064-511.616-205.632-511.616-307.136 0-101.44 219.584-306.816 511.616-306.816C814.976 205.056 1023.68 410.432 1023.616 511.872L1023.616 511.872zM512.448 261.12C376.256 261.12 265.92 373.44 265.92 512s110.4 250.944 246.528 250.944c136.192 0 246.592-112.384 246.592-250.944C759.04 373.44 648.64 261.12 512.448 261.12L512.448 261.12zM512 351.872c-86.72 0-156.992 71.552-156.992 159.808S425.28 671.424 512 671.424s156.992-71.552 156.992-159.808C668.992 423.36 598.72 351.872 512 351.872L512 351.872z" fill="#05780c"></path></g></g></svg>