<?xml version="1.0" standalone="no"?><!DOCTYPE svg PUBLIC "-//W3C//DTD SVG 1.1//EN" "http://www.w3.org/Graphics/SVG/1.1/DTD/svg11.dtd"><svg width="18" height="18" viewBox="0 0 18 18" version="1.1" xmlns="http://www.w3.org/2000/svg" xmlns:xlink="http://www.w3.org/1999/xlink"><defs><style type="text/css"><![CDATA[
@font-face { font-family: ifont; src: url("http://at.alicdn.com/t/font_1442373896_4754455.eot?#iefix") format("embedded-opentype"), url("http://at.alicdn.com/t/font_1442373896_4754455.woff") format("woff"), url("http://at.alicdn.com/t/font_1442373896_4754455.ttf") format("truetype"), url("http://at.alicdn.com/t/font_1442373896_4754455.svg#ifont") format("svg"); }

]]></style></defs><g class="transform-group"><g transform="scale(0.017578125, 0.017578125)"><path d="M356.915387 364.128161c0-3.947915 1.503237-7.899924 4.516874-10.907421 3.007497-3.012613 6.954389-4.516874 10.906397-4.516874l277.717116 0c3.950985 0 7.898901 1.503237 10.906397 4.516874 3.01159 3.007497 4.54041 6.959505 4.54041 10.907421l0 277.705859c0 3.945869-1.527796 7.898901-4.54041 10.906397-3.007497 3.01159-6.955412 4.53734-10.906397 4.53734L372.338658 657.277758c-3.946892 0-7.898901-1.503237-10.906397-4.53734-3.012613-3.007497-4.516874-6.960529-4.516874-10.906397L356.915387 364.128161 356.915387 364.128161 356.915387 364.128161zM356.915387 364.128161M511.340479 63.053058c-246.744707 0-446.762183 200.008266-446.762183 446.723298 0 246.734474 200.017476 446.74274 446.762183 446.74274 246.743684 0 446.762183-200.01236 446.762183-446.722274C958.102662 263.062348 758.084163 63.053058 511.340479 63.053058L511.340479 63.053058zM511.340479 853.821109c-190.007495 0-344.057033-154.027026-344.057033-344.024288 0-190.016705 154.049538-344.042707 344.057033-344.042707 190.024891 0 344.057033 154.026002 344.057033 344.042707C855.397512 699.795107 701.366394 853.821109 511.340479 853.821109L511.340479 853.821109zM511.340479 853.821109" fill="#FF0F37"></path></g></g></svg>